<?xml version="1.0" encoding="UTF-8"?>
<!DOCTYPE svg PUBLIC "-//W3C//DTD SVG 1.1//EN" "http://www.w3.org/Graphics/SVG/1.1/DTD/svg11.dtd">
<svg xmlns="http://www.w3.org/2000/svg" version="1.1" width="895px" height="280px" style="shape-rendering:geometricPrecision; text-rendering:geometricPrecision; image-rendering:optimizeQuality; fill-rule:evenodd; clip-rule:evenodd" xmlns:xlink="http://www.w3.org/1999/xlink">
<g><path style="opacity:0.953" fill="#fefffe" d="M 214.5,-0.5 C 215.167,-0.5 215.833,-0.5 216.5,-0.5C 228.721,19.0683 241.388,38.4017 254.5,57.5C 264.817,58.3323 275.151,58.8323 285.5,59C 335.073,132.002 383.739,205.502 431.5,279.5C 287.5,279.5 143.5,279.5 -0.5,279.5C -0.5,278.5 -0.5,277.5 -0.5,276.5C 38.1957,219.949 76.3623,162.949 114,105.5C 114.689,104.643 115.522,103.977 116.5,103.5C 122.833,107.333 129.167,111.167 135.5,115C 136.784,115.684 137.951,115.517 139,114.5C 164.187,76.1097 189.354,37.7764 214.5,-0.5 Z M 350.5,205.5 C 319.017,181.918 287.684,158.085 256.5,134C 255.5,133.333 254.5,133.333 253.5,134C 240.64,143.693 227.64,153.193 214.5,162.5C 196.5,151.5 178.5,140.5 160.5,129.5C 178.833,102.167 197.167,74.8333 215.5,47.5C 223.957,59.5799 232.29,71.7465 240.5,84C 250.849,84.1677 261.183,84.6677 271.5,85.5C 298.351,125.214 324.684,165.214 350.5,205.5 Z M 123.5,139.5 C 151.026,155.182 178.192,171.515 205,188.5C 215.295,209.59 225.462,230.757 235.5,252C 173.167,252.667 110.833,252.667 48.5,252C 73.8823,214.729 98.8823,177.229 123.5,139.5 Z M 253.5,166.5 C 291.619,194.739 329.619,223.239 367.5,252C 333.162,252.833 298.828,252.667 264.5,251.5C 253.833,228.833 243.167,206.167 232.5,183.5C 239.347,177.585 246.347,171.919 253.5,166.5 Z"/></g>
<g><path style="opacity:0.907" fill="#fefffe" d="M 454.5,86.5 C 460.369,86.048 466.035,86.8813 471.5,89C 474.492,90.3151 476.825,92.3151 478.5,95C 476.629,97.904 474.629,100.737 472.5,103.5C 458.253,93.9851 448.586,97.4851 443.5,114C 445.51,125.358 452.177,130.691 463.5,130C 466.801,128.682 469.801,126.848 472.5,124.5C 474.333,126.833 476.167,129.167 478,131.5C 478.667,132.5 478.667,133.5 478,134.5C 468.052,142.489 457.218,143.656 445.5,138C 432.701,128.023 429.535,115.523 436,100.5C 440.371,93.275 446.538,88.6083 454.5,86.5 Z"/></g>
<g><path style="opacity:0.92" fill="#fefffe" d="M 669.5,86.5 C 679.41,85.2145 687.743,88.0479 694.5,95C 692.683,98.1566 690.85,101.323 689,104.5C 679.911,95.3398 670.911,95.3398 662,104.5C 657.13,112.872 658.297,120.372 665.5,127C 673.131,132.048 680.298,131.548 687,125.5C 688.009,123.975 688.509,122.308 688.5,120.5C 684.167,120.5 679.833,120.5 675.5,120.5C 675.5,117.167 675.5,113.833 675.5,110.5C 683.833,110.5 692.167,110.5 700.5,110.5C 700.506,136.678 687.839,146.178 662.5,139C 647.359,128.656 643.859,115.156 652,98.5C 656.505,92.3482 662.338,88.3482 669.5,86.5 Z"/></g>
<g><path style="opacity:0.929" fill="#fefffe" d="M 832.5,86.5 C 834.335,87.1223 835.502,88.4556 836,90.5C 843.5,106.833 851,123.167 858.5,139.5C 854.541,140.66 850.541,140.827 846.5,140C 845.373,138.247 844.373,136.413 843.5,134.5C 836.858,133.336 830.192,133.169 823.5,134C 822.373,135.753 821.373,137.587 820.5,139.5C 816.205,140.661 811.871,140.828 807.5,140C 815.976,122.216 824.309,104.383 832.5,86.5 Z M 832.5,112.5 C 835.248,115.655 837.248,119.322 838.5,123.5C 834.878,124.659 831.211,124.825 827.5,124C 829.308,120.219 830.974,116.385 832.5,112.5 Z"/></g>
<g><path style="opacity:0.952" fill="#fefffe" d="M 414.5,88.5 C 418.167,88.5 421.833,88.5 425.5,88.5C 425.5,105.833 425.5,123.167 425.5,140.5C 421.833,140.5 418.167,140.5 414.5,140.5C 414.5,123.167 414.5,105.833 414.5,88.5 Z"/></g>
<g><path style="opacity:0.952" fill="#fefffe" d="M 483.5,88.5 C 494.167,88.5 504.833,88.5 515.5,88.5C 515.5,92.1667 515.5,95.8333 515.5,99.5C 508.5,99.5 501.5,99.5 494.5,99.5C 494.5,102.5 494.5,105.5 494.5,108.5C 500.5,108.5 506.5,108.5 512.5,108.5C 512.5,112.167 512.5,115.833 512.5,119.5C 506.5,119.5 500.5,119.5 494.5,119.5C 494.5,122.833 494.5,126.167 494.5,129.5C 501.5,129.5 508.5,129.5 515.5,129.5C 515.5,133.167 515.5,136.833 515.5,140.5C 504.833,140.5 494.167,140.5 483.5,140.5C 483.5,123.167 483.5,105.833 483.5,88.5 Z"/></g>
<g><path style="opacity:0.933" fill="#fefffe" d="M 523.5,88.5 C 530.508,88.3337 537.508,88.5004 544.5,89C 553.895,93.9275 555.895,100.927 550.5,110C 560.791,115.614 563.291,123.78 558,134.5C 556.062,137.106 553.562,138.939 550.5,140C 541.506,140.5 532.506,140.666 523.5,140.5C 523.5,123.167 523.5,105.833 523.5,88.5 Z M 534.5,99.5 C 536.857,99.3367 539.19,99.5034 541.5,100C 543.994,102.423 543.994,104.756 541.5,107C 539.323,108.202 536.989,108.702 534.5,108.5C 534.5,105.5 534.5,102.5 534.5,99.5 Z M 534.5,118.5 C 538.514,118.334 542.514,118.501 546.5,119C 550.485,122.286 550.485,125.619 546.5,129C 542.514,129.499 538.514,129.666 534.5,129.5C 534.5,125.833 534.5,122.167 534.5,118.5 Z"/></g>
<g><path style="opacity:0.952" fill="#fefffe" d="M 565.5,88.5 C 576.167,88.5 586.833,88.5 597.5,88.5C 597.5,92.1667 597.5,95.8333 597.5,99.5C 590.5,99.5 583.5,99.5 576.5,99.5C 576.5,102.5 576.5,105.5 576.5,108.5C 582.5,108.5 588.5,108.5 594.5,108.5C 594.5,112.167 594.5,115.833 594.5,119.5C 588.5,119.5 582.5,119.5 576.5,119.5C 576.5,122.833 576.5,126.167 576.5,129.5C 583.5,129.5 590.5,129.5 597.5,129.5C 597.5,133.167 597.5,136.833 597.5,140.5C 586.833,140.5 576.167,140.5 565.5,140.5C 565.5,123.167 565.5,105.833 565.5,88.5 Z"/></g>
<g><path style="opacity:0.932" fill="#fefffe" d="M 604.5,88.5 C 612.507,88.3336 620.507,88.5003 628.5,89C 641.176,95.242 643.842,104.409 636.5,116.5C 634.972,117.861 633.305,119.028 631.5,120C 635.973,126.639 640.639,133.139 645.5,139.5C 640.869,140.662 636.202,140.828 631.5,140C 626.21,132.587 621.043,125.087 616,117.5C 615.5,125.159 615.334,132.826 615.5,140.5C 611.833,140.5 608.167,140.5 604.5,140.5C 604.5,123.167 604.5,105.833 604.5,88.5 Z M 615.5,99.5 C 618.85,99.335 622.183,99.5017 625.5,100C 630.833,103.667 630.833,107.333 625.5,111C 622.183,111.498 618.85,111.665 615.5,111.5C 615.5,107.5 615.5,103.5 615.5,99.5 Z"/></g>
<g><path style="opacity:0.932" fill="#fefffe" d="M 726.5,88.5 C 734.507,88.3336 742.507,88.5003 750.5,89C 763.176,95.242 765.842,104.409 758.5,116.5C 756.972,117.861 755.305,119.028 753.5,120C 757.973,126.639 762.639,133.139 767.5,139.5C 762.869,140.662 758.202,140.828 753.5,140C 748.21,132.587 743.043,125.087 738,117.5C 737.5,125.159 737.334,132.826 737.5,140.5C 733.833,140.5 730.167,140.5 726.5,140.5C 726.5,123.167 726.5,105.833 726.5,88.5 Z M 737.5,99.5 C 740.85,99.335 744.183,99.5017 747.5,100C 752.833,103.667 752.833,107.333 747.5,111C 744.183,111.498 740.85,111.665 737.5,111.5C 737.5,107.5 737.5,103.5 737.5,99.5 Z"/></g>
<g><path style="opacity:0.952" fill="#fefffe" d="M 771.5,88.5 C 782.167,88.5 792.833,88.5 803.5,88.5C 803.5,92.1667 803.5,95.8333 803.5,99.5C 796.5,99.5 789.5,99.5 782.5,99.5C 782.5,102.5 782.5,105.5 782.5,108.5C 788.5,108.5 794.5,108.5 800.5,108.5C 800.5,112.167 800.5,115.833 800.5,119.5C 794.5,119.5 788.5,119.5 782.5,119.5C 782.5,122.833 782.5,126.167 782.5,129.5C 789.5,129.5 796.5,129.5 803.5,129.5C 803.5,133.167 803.5,136.833 803.5,140.5C 792.833,140.5 782.167,140.5 771.5,140.5C 771.5,123.167 771.5,105.833 771.5,88.5 Z"/></g>
<g><path style="opacity:0.952" fill="#fefffe" d="M 894.5,129.5 C 894.5,133.167 894.5,136.833 894.5,140.5C 883.833,140.5 873.167,140.5 862.5,140.5C 862.5,123.167 862.5,105.833 862.5,88.5C 866.167,88.5 869.833,88.5 873.5,88.5C 873.5,102.167 873.5,115.833 873.5,129.5C 880.5,129.5 887.5,129.5 894.5,129.5 Z"/></g>
<g><path style="opacity:0.909" fill="#fefffe" d="M 717.5,165.5 C 723.567,165.475 729.067,167.142 734,170.5C 734.833,172.167 735.667,173.833 736.5,175.5C 733.833,177.5 731.167,179.5 728.5,181.5C 723.616,175.369 718.616,175.202 713.5,181C 714.167,182 714.833,183 715.5,184C 723.385,186.522 730.218,190.689 736,196.5C 741.007,208.147 737.507,215.98 725.5,220C 714.28,222.932 705.614,219.599 699.5,210C 702.435,208.285 705.268,206.452 708,204.5C 711.159,207.246 714.826,208.912 719,209.5C 728.814,207.753 729.648,204.253 721.5,199C 716.341,196.588 711.341,193.921 706.5,191C 699.384,177.846 703.051,169.346 717.5,165.5 Z"/></g>
<g><path style="opacity:0.929" fill="#fefffe" d="M 797.5,165.5 C 799.335,166.122 800.502,167.456 801,169.5C 808.5,185.833 816,202.167 823.5,218.5C 819.541,219.66 815.541,219.827 811.5,219C 810.373,217.247 809.373,215.413 808.5,213.5C 801.858,212.336 795.192,212.169 788.5,213C 787.373,214.753 786.373,216.587 785.5,218.5C 781.205,219.661 776.871,219.828 772.5,219C 780.976,201.216 789.309,183.383 797.5,165.5 Z M 797.5,191.5 C 800.248,194.655 802.248,198.322 803.5,202.5C 799.878,203.659 796.211,203.825 792.5,203C 794.308,199.219 795.974,195.385 797.5,191.5 Z"/></g>
<g><path style="opacity:0.952" fill="#fefffe" d="M 663.5,167.5 C 674.167,167.5 684.833,167.5 695.5,167.5C 695.5,171.167 695.5,174.833 695.5,178.5C 688.5,178.5 681.5,178.5 674.5,178.5C 674.5,181.5 674.5,184.5 674.5,187.5C 680.5,187.5 686.5,187.5 692.5,187.5C 692.5,191.167 692.5,194.833 692.5,198.5C 686.5,198.5 680.5,198.5 674.5,198.5C 674.5,201.833 674.5,205.167 674.5,208.5C 681.5,208.5 688.5,208.5 695.5,208.5C 695.5,212.167 695.5,215.833 695.5,219.5C 684.833,219.5 674.167,219.5 663.5,219.5C 663.5,202.167 663.5,184.833 663.5,167.5 Z"/></g>
<g><path style="opacity:0.948" fill="#fefffe" d="M 741.5,167.5 C 753.833,167.5 766.167,167.5 778.5,167.5C 778.5,171.167 778.5,174.833 778.5,178.5C 774.167,178.5 769.833,178.5 765.5,178.5C 765.5,192.167 765.5,205.833 765.5,219.5C 761.833,219.5 758.167,219.5 754.5,219.5C 754.5,205.833 754.5,192.167 754.5,178.5C 750.167,178.5 745.833,178.5 741.5,178.5C 741.5,174.833 741.5,171.167 741.5,167.5 Z"/></g>
<g><path style="opacity:0.948" fill="#fefffe" d="M 818.5,167.5 C 830.833,167.5 843.167,167.5 855.5,167.5C 855.5,171.167 855.5,174.833 855.5,178.5C 851.167,178.5 846.833,178.5 842.5,178.5C 842.5,192.167 842.5,205.833 842.5,219.5C 838.833,219.5 835.167,219.5 831.5,219.5C 831.5,205.833 831.5,192.167 831.5,178.5C 827.167,178.5 822.833,178.5 818.5,178.5C 818.5,174.833 818.5,171.167 818.5,167.5 Z"/></g>
<g><path style="opacity:0.952" fill="#fefffe" d="M 861.5,167.5 C 872.167,167.5 882.833,167.5 893.5,167.5C 893.5,171.167 893.5,174.833 893.5,178.5C 886.5,178.5 879.5,178.5 872.5,178.5C 872.5,181.5 872.5,184.5 872.5,187.5C 878.5,187.5 884.5,187.5 890.5,187.5C 890.5,191.167 890.5,194.833 890.5,198.5C 884.5,198.5 878.5,198.5 872.5,198.5C 872.5,201.833 872.5,205.167 872.5,208.5C 879.5,208.5 886.5,208.5 893.5,208.5C 893.5,212.167 893.5,215.833 893.5,219.5C 882.833,219.5 872.167,219.5 861.5,219.5C 861.5,202.167 861.5,184.833 861.5,167.5 Z"/></g>
</svg>
